<svg width="126" height="24" viewBox="0 0 126 24" fill="none" xmlns="http://www.w3.org/2000/svg">
<rect width="126" height="24" rx="12" fill="black"/>
<rect x="4" y="4" width="16" height="16" rx="8" fill="white" fill-opacity="0.25"/>
<path d="M10.151 12.1189L15.0445 12.1194L15.0445 13.831L15.7367 13.8315L15.7352 12.1174L15.9701 12.1174L15.9701 13.83L16.2557 13.8295C16.2557 13.7636 16.2687 13.6983 16.2939 13.6374C16.3191 13.5765 16.3561 13.5212 16.4027 13.4746C16.4493 13.428 16.5047 13.391 16.5656 13.3658C16.6265 13.3406 16.6917 13.3276 16.7577 13.3276C16.8236 13.3276 16.8888 13.3406 16.9497 13.3658C17.0106 13.391 17.066 13.428 17.1126 13.4746C17.1592 13.5212 17.1962 13.5765 17.2214 13.6374C17.2466 13.6983 17.2596 13.7636 17.2596 13.8295L17.5367 13.8295L17.5397 12.1199L18.0597 12.1199C18.0947 12.12 18.1293 12.1131 18.1616 12.0998C18.1939 12.0864 18.2233 12.0668 18.248 12.0421C18.2727 12.0174 18.2923 11.9881 18.3056 11.9557C18.319 11.9234 18.3258 11.8888 18.3257 11.8539L18.3257 11.5366C18.3258 11.5017 18.319 11.467 18.3056 11.4347C18.2923 11.4024 18.2727 11.3731 18.248 11.3484C18.2233 11.3236 18.1939 11.304 18.1616 11.2907C18.1293 11.2774 18.0947 11.2705 18.0597 11.2706L10.152 11.2706L10.1525 11.0051L9.9176 11.0051C10.0049 10.8006 10.0503 10.5807 10.0511 10.3584C10.0518 10.1361 10.008 9.91584 9.92207 9.71079C9.83616 9.50573 9.70996 9.32001 9.55095 9.16463C9.39194 9.00924 9.20336 8.88736 8.99638 8.8062C8.7894 8.72504 8.56823 8.68626 8.34599 8.69215C8.12374 8.69804 7.90494 8.74849 7.70255 8.8405C7.50016 8.93251 7.3183 9.06421 7.16775 9.2278C7.0172 9.39139 6.90101 9.58354 6.82609 9.79286C6.37159 9.86612 5.95797 10.0987 5.65921 10.4489C5.36045 10.7992 5.19603 11.2443 5.19537 11.7047C5.19471 12.1651 5.35784 12.6107 5.65558 12.9618C5.95333 13.3129 6.36628 13.5467 6.82057 13.6212C6.89212 13.834 7.00605 14.0301 7.15547 14.1976C7.3049 14.3652 7.48672 14.5007 7.68996 14.596C7.89321 14.6914 8.11367 14.7446 8.33802 14.7523C8.56238 14.7601 8.786 14.7224 8.99536 14.6414C9.20473 14.5604 9.39551 14.4378 9.5562 14.281C9.71688 14.1242 9.84413 13.9365 9.93027 13.7292C10.0164 13.5219 10.0597 13.2993 10.0574 13.0748C10.0551 12.8503 10.0074 12.6286 9.9171 12.4231L10.152 12.4231L10.151 12.1189ZM8.39117 12.0075L8.41175 12.007C8.4258 12.007 8.43986 12.008 8.45391 12.009C8.39168 12.2768 8.24954 12.5195 8.04634 12.7047C7.84313 12.89 7.58844 13.0092 7.31599 13.0465C7.32476 12.7709 7.43903 12.5093 7.63519 12.3155C7.83136 12.1218 8.09443 12.0108 8.37009 12.0055L8.39117 12.0075ZM8.39117 11.4202C8.38464 11.4197 8.37762 11.4207 8.37159 11.4207C8.09374 11.4152 7.82879 11.3024 7.63228 11.1059C7.43577 10.9094 7.32296 10.6444 7.3175 10.3666C7.59245 10.4044 7.8492 10.5256 8.05319 10.7138C8.25718 10.902 8.39861 11.1482 8.45843 11.4192C8.44337 11.4202 8.42781 11.4217 8.41275 11.4217L8.39117 11.4202ZM7.46005 13.6182C7.82675 13.5552 8.16765 13.3883 8.44231 13.1373C8.71697 12.8863 8.91385 12.5618 9.00957 12.2022C9.14163 12.2946 9.25123 12.4155 9.33028 12.5559C9.40934 12.6964 9.45581 12.8528 9.46628 13.0136C9.47674 13.1744 9.45093 13.3355 9.39075 13.485C9.33057 13.6345 9.23756 13.7686 9.11859 13.8773C8.99962 13.986 8.85773 14.0666 8.70343 14.1131C8.54912 14.1596 8.38634 14.1709 8.22711 14.146C8.06788 14.1211 7.91627 14.0608 7.7835 13.9694C7.65073 13.8781 7.54019 13.758 7.46005 13.6182ZM6.73123 10.4138C6.74186 10.6714 6.81235 10.923 6.93712 11.1487C7.06188 11.3743 7.23749 11.5678 7.45001 11.7138C7.23881 11.8584 7.0639 12.0498 6.93895 12.2731C6.81399 12.4965 6.74238 12.7457 6.72972 13.0013C6.4542 12.9153 6.21338 12.7435 6.04236 12.511C5.87134 12.2784 5.77908 11.9974 5.77902 11.7087C5.77897 11.4201 5.87112 11.139 6.04205 10.9064C6.21297 10.6738 6.45373 10.5019 6.72922 10.4158L6.73123 10.4138ZM9.46735 10.346C9.46711 10.5178 9.42569 10.687 9.34657 10.8395C9.26744 10.992 9.15291 11.1233 9.01258 11.2224C8.91861 10.8617 8.72291 10.5357 8.4488 10.2831C8.17469 10.0305 7.83374 9.86209 7.46658 9.79788C7.58675 9.59515 7.77022 9.43753 7.98875 9.3493C8.20729 9.26106 8.44876 9.24711 8.67601 9.30958C8.90325 9.37206 9.10365 9.50749 9.24637 9.69504C9.38909 9.88258 9.4662 10.1118 9.46584 10.3475L9.46735 10.346Z" fill="white"/>
<path d="M28.136 15.632C25.947 15.632 24.407 13.938 24.407 11.65C24.407 9.362 25.947 7.668 28.136 7.668C29.786 7.668 31.073 8.592 31.601 10.088L30.468 10.462C30.094 9.395 29.247 8.757 28.136 8.757C26.64 8.757 25.606 9.978 25.606 11.65C25.606 13.322 26.64 14.543 28.136 14.543C29.247 14.543 30.094 13.905 30.468 12.838L31.601 13.201C31.062 14.708 29.786 15.632 28.136 15.632ZM32.6205 15.5V10H33.5225L33.6655 10.528H33.7645C33.9405 10.231 34.3475 9.868 35.0955 9.868C35.1945 9.868 35.2825 9.879 35.3595 9.901V10.902C35.2385 10.869 35.0955 10.847 34.9415 10.847C34.1275 10.847 33.7095 11.386 33.7095 12.42V15.5H32.6205ZM37.0206 13.058C37.1306 14.004 37.7466 14.587 38.5386 14.587C39.1876 14.587 39.6936 14.279 39.9466 13.718L40.9366 14.059C40.5406 15.06 39.6166 15.632 38.5386 15.632C37.0316 15.632 35.9536 14.389 35.9536 12.717C35.9536 11.089 37.0426 9.868 38.5386 9.868C40.0346 9.868 41.1126 11.067 41.1346 12.684V13.058H37.0206ZM38.5386 10.913C37.7796 10.913 37.2076 11.43 37.0536 12.233H40.0346C39.8806 11.43 39.2976 10.913 38.5386 10.913ZM43.9206 15.632C42.8206 15.632 41.8746 14.972 41.8746 13.916C41.8746 12.849 42.8206 12.156 44.2616 12.156C44.6906 12.156 45.0976 12.211 45.4826 12.332V11.881C45.4826 11.331 44.9766 10.935 44.2726 10.935C43.6456 10.935 43.3156 11.166 43.1396 11.584L42.1166 11.287C42.3696 10.429 43.2056 9.868 44.2066 9.868C45.5376 9.868 46.5386 10.715 46.5386 11.749V15.5H45.6366L45.4606 14.884H45.3616C45.1856 15.379 44.7016 15.632 43.9206 15.632ZM42.9416 13.883C42.9416 14.389 43.4036 14.642 44.0526 14.642C44.8226 14.642 45.4826 14.257 45.4826 13.674V13.267C45.0976 13.135 44.6356 13.058 44.2176 13.058C43.4256 13.058 42.9416 13.355 42.9416 13.883ZM49.7488 15.632C48.7808 15.632 48.2418 15.049 48.2418 14.015V10.935H47.3618V10C47.9228 9.978 48.2418 9.637 48.2418 9.098V8.273H49.3308V10H50.3538V10.935H49.3308V13.795C49.3308 14.411 49.4958 14.653 49.8918 14.653C50.1008 14.653 50.2878 14.587 50.4198 14.477L50.8928 15.313C50.5848 15.511 50.2108 15.632 49.7488 15.632ZM52.3389 13.058C52.4489 14.004 53.0649 14.587 53.8569 14.587C54.5059 14.587 55.0119 14.279 55.2649 13.718L56.2549 14.059C55.8589 15.06 54.9349 15.632 53.8569 15.632C52.3499 15.632 51.2719 14.389 51.2719 12.717C51.2719 11.089 52.3609 9.868 53.8569 9.868C55.3529 9.868 56.4309 11.067 56.4529 12.684V13.058H52.3389ZM53.8569 10.913C53.0979 10.913 52.5259 11.43 52.3719 12.233H55.3529C55.1989 11.43 54.6159 10.913 53.8569 10.913ZM60.1123 10H61.0143L61.1903 10.616H61.2893C61.5643 10.176 62.2023 9.868 62.8953 9.868C64.4133 9.868 65.5243 11.089 65.5243 12.75C65.5243 14.411 64.4133 15.632 62.8953 15.632C62.1913 15.632 61.3883 15.236 61.2013 14.741V17.7H60.1123V10ZM62.7853 10.869C61.8393 10.869 61.2013 11.628 61.2013 12.728C61.2013 13.839 61.8393 14.598 62.7853 14.598C63.7533 14.598 64.4353 13.817 64.4353 12.728C64.4353 11.65 63.7533 10.869 62.7853 10.869ZM66.665 7.668H67.754V15.5H66.665V7.668ZM71.0339 15.632C69.9339 15.632 68.9879 14.972 68.9879 13.916C68.9879 12.849 69.9339 12.156 71.3749 12.156C71.8039 12.156 72.2109 12.211 72.5959 12.332V11.881C72.5959 11.331 72.0899 10.935 71.3859 10.935C70.7589 10.935 70.4289 11.166 70.2529 11.584L69.2299 11.287C69.4829 10.429 70.3189 9.868 71.3199 9.868C72.6509 9.868 73.6519 10.715 73.6519 11.749V15.5H72.7499L72.5739 14.884H72.4749C72.2989 15.379 71.8149 15.632 71.0339 15.632ZM70.0549 13.883C70.0549 14.389 70.5169 14.642 71.1659 14.642C71.9359 14.642 72.5959 14.257 72.5959 13.674V13.267C72.2109 13.135 71.7489 13.058 71.3309 13.058C70.5389 13.058 70.0549 13.355 70.0549 13.883ZM79.8929 13.949C79.4749 14.994 78.5729 15.632 77.4069 15.632C75.8119 15.632 74.6899 14.422 74.6899 12.739C74.6899 11.056 75.8229 9.868 77.4069 9.868C78.5729 9.868 79.4859 10.495 79.8929 11.529L78.8589 11.892C78.6059 11.298 78.0999 10.968 77.4069 10.968C76.4059 10.968 75.7789 11.661 75.7789 12.739C75.7789 13.806 76.4169 14.521 77.4069 14.521C78.0889 14.521 78.5949 14.191 78.8589 13.597L79.8929 13.949ZM81.7725 13.058C81.8825 14.004 82.4985 14.587 83.2905 14.587C83.9395 14.587 84.4455 14.279 84.6985 13.718L85.6885 14.059C85.2925 15.06 84.3685 15.632 83.2905 15.632C81.7835 15.632 80.7055 14.389 80.7055 12.717C80.7055 11.089 81.7945 9.868 83.2905 9.868C84.7865 9.868 85.8645 11.067 85.8865 12.684V13.058H81.7725ZM83.2905 10.913C82.5315 10.913 81.9595 11.43 81.8055 12.233H84.7865C84.6325 11.43 84.0495 10.913 83.2905 10.913ZM88.1665 10.616C88.4085 10.198 88.9035 9.901 89.5635 9.901C90.8945 9.901 91.7635 10.803 91.7635 12.145V15.5H90.6745V12.42C90.6745 11.386 90.0805 10.88 89.2995 10.88C88.5955 10.88 88.0675 11.551 88.0675 12.552V15.5H86.9785V7.668H88.0675V10.616H88.1665ZM95.4111 15.632C93.8051 15.632 92.6831 14.411 92.6831 12.761C92.6831 11.1 93.8051 9.879 95.4111 9.879C97.0391 9.879 98.1611 11.1 98.1611 12.761C98.1611 14.411 97.0391 15.632 95.4111 15.632ZM95.4111 14.532C96.4341 14.532 97.0611 13.806 97.0611 12.761C97.0611 11.705 96.4341 10.979 95.4111 10.979C94.4101 10.979 93.7721 11.705 93.7831 12.761C93.7831 13.806 94.4101 14.532 95.4111 14.532ZM99.2998 7.668H100.389V15.5H99.2998V7.668ZM106.947 15.5H106.045L105.869 14.884H105.77C105.495 15.324 104.857 15.632 104.153 15.632C102.635 15.632 101.535 14.411 101.535 12.75C101.535 11.089 102.635 9.868 104.153 9.868C104.857 9.868 105.671 10.264 105.858 10.759V7.668H106.947V15.5ZM104.263 14.631C105.209 14.631 105.858 13.872 105.858 12.772C105.858 11.661 105.209 10.902 104.263 10.902C103.306 10.902 102.624 11.683 102.624 12.772C102.624 13.85 103.306 14.631 104.263 14.631ZM109.154 13.058C109.264 14.004 109.88 14.587 110.672 14.587C111.321 14.587 111.827 14.279 112.08 13.718L113.07 14.059C112.674 15.06 111.75 15.632 110.672 15.632C109.165 15.632 108.087 14.389 108.087 12.717C108.087 11.089 109.176 9.868 110.672 9.868C112.168 9.868 113.246 11.067 113.268 12.684V13.058H109.154ZM110.672 10.913C109.913 10.913 109.341 11.43 109.187 12.233H112.168C112.014 11.43 111.431 10.913 110.672 10.913ZM114.25 15.5V10H115.152L115.295 10.528H115.394C115.57 10.231 115.977 9.868 116.725 9.868C116.824 9.868 116.912 9.879 116.989 9.901V10.902C116.868 10.869 116.725 10.847 116.571 10.847C115.757 10.847 115.339 11.386 115.339 12.42V15.5H114.25Z" fill="white"/>
</svg>
